<svg id="圖層_1" data-name="圖層 1" xmlns="http://www.w3.org/2000/svg" viewBox="0 0 376 50"><defs><style>.cls-1{fill:#092058;}.cls-2{fill:#2f31e5;}</style></defs><title>W_logo</title><path class="cls-1" d="M22.27,33.57a4.09,4.09,0,0,0-1.41-3.24A14.11,14.11,0,0,0,15.94,28a27.85,27.85,0,0,1-9.17-4.29A8.12,8.12,0,0,1,3.64,17a8.47,8.47,0,0,1,3.53-7,14.21,14.21,0,0,1,9-2.72q5.81,0,9.34,2.92a9.15,9.15,0,0,1,3.42,7.67l-.05.14H22.07a5,5,0,0,0-1.58-4,6.42,6.42,0,0,0-4.43-1.4,5.84,5.84,0,0,0-4,1.24A4.05,4.05,0,0,0,10.64,17a3.46,3.46,0,0,0,1.54,2.91,20.12,20.12,0,0,0,5.29,2.41,22.89,22.89,0,0,1,8.78,4.26,8.72,8.72,0,0,1,3,6.91,8.32,8.32,0,0,1-3.5,7.07c-2.34,1.73-5.42,2.59-9.26,2.59a16.53,16.53,0,0,1-9.67-2.8q-4-2.81-3.92-8.37L3,31.87H9.75a5.47,5.47,0,0,0,1.83,4.55,7.62,7.62,0,0,0,4.93,1.46,6.76,6.76,0,0,0,4.28-1.17A3.82,3.82,0,0,0,22.27,33.57Z"/><path class="cls-1" d="M45.13,43.18q-5.79,0-9.06-3.56a13.06,13.06,0,0,1-3.26-9.17V29.5A14.18,14.18,0,0,1,36,20a10.77,10.77,0,0,1,8.7-3.7q5.22,0,8,3.2a12.68,12.68,0,0,1,2.79,8.62V31.7H40l-.07.14a7,7,0,0,0,1.61,4.32,5.43,5.43,0,0,0,4.31,1.65,14.43,14.43,0,0,0,4-.48,16.21,16.21,0,0,0,3.39-1.46l1.89,4.32a13.18,13.18,0,0,1-4.22,2.13A18.81,18.81,0,0,1,45.13,43.18Zm-.45-21.52a3.88,3.88,0,0,0-3.25,1.45A7.28,7.28,0,0,0,40.05,27l.05.12h8.53v-.53A6.1,6.1,0,0,0,47.7,23,3.46,3.46,0,0,0,44.68,21.66Z"/><path class="cls-1" d="M66.92,42.68h-7V5.29h7Z"/><path class="cls-1" d="M83.92,43.18q-5.81,0-9.07-3.56a13.06,13.06,0,0,1-3.26-9.17V29.5A14.18,14.18,0,0,1,74.76,20a10.77,10.77,0,0,1,8.7-3.7c3.48,0,6.16,1.07,8,3.2a12.68,12.68,0,0,1,2.79,8.62V31.7H78.81l-.07.14a7,7,0,0,0,1.62,4.32,5.41,5.41,0,0,0,4.3,1.65,14.43,14.43,0,0,0,4-.48A16.21,16.21,0,0,0,92,35.87l1.89,4.32a13.12,13.12,0,0,1-4.21,2.13A18.91,18.91,0,0,1,83.92,43.18Zm-.46-21.52a3.88,3.88,0,0,0-3.25,1.45A7.28,7.28,0,0,0,78.83,27l0,.12h8.53v-.53A6.1,6.1,0,0,0,86.48,23,3.45,3.45,0,0,0,83.46,21.66Z"/><path class="cls-1" d="M109.18,37.81a3.89,3.89,0,0,0,2.9-1.09,4,4,0,0,0,1.08-2.91h6.37l0,.14a8.09,8.09,0,0,1-2.92,6.58,10.94,10.94,0,0,1-7.48,2.65q-5.76,0-8.89-3.68a14,14,0,0,1-3.14-9.41v-.71A14.09,14.09,0,0,1,100.27,20q3.14-3.7,8.86-3.71A10.73,10.73,0,0,1,116.78,19a9.12,9.12,0,0,1,2.8,7.19l0,.14h-6.37A5.18,5.18,0,0,0,112.09,23a3.58,3.58,0,0,0-3-1.33,4,4,0,0,0-3.85,2.17,11.86,11.86,0,0,0-1.13,5.55v.71a11.84,11.84,0,0,0,1.13,5.59A4.06,4.06,0,0,0,109.18,37.81Z"/><path class="cls-1" d="M132.05,10.39v6.35h4.38v4.92h-4.38V34.87a3,3,0,0,0,.63,2.15,2.24,2.24,0,0,0,1.67.65,6.85,6.85,0,0,0,1-.06,9.37,9.37,0,0,0,.93-.2l.58,5.05a14.51,14.51,0,0,1-2,.54,12.29,12.29,0,0,1-2.17.18,7.46,7.46,0,0,1-5.58-2c-1.3-1.32-2-3.43-2-6.3V21.66h-3.79V16.74h3.79V10.39Z"/><path class="cls-1" d="M237.53,33.86a5.51,5.51,0,0,0-2.13-4.43,21.67,21.67,0,0,0-7.24-3.28,24.32,24.32,0,0,1-8.5-3.83,7.48,7.48,0,0,1-2.91-6.22A8,8,0,0,1,220,9.52,13.05,13.05,0,0,1,228.33,7a12.32,12.32,0,0,1,8.56,2.91A9.26,9.26,0,0,1,240,17.25l-.05.15h-2.69a7.42,7.42,0,0,0-2.5-5.73,9.24,9.24,0,0,0-6.46-2.28,9.71,9.71,0,0,0-6.39,1.93,6,6,0,0,0-2.31,4.74,5.41,5.41,0,0,0,2.09,4.37q2.1,1.71,7.4,3.2a24.25,24.25,0,0,1,8.41,3.95,7.62,7.62,0,0,1,2.9,6.24A7.74,7.74,0,0,1,237,40.37a14,14,0,0,1-8.54,2.48,15.5,15.5,0,0,1-9-2.62,8.43,8.43,0,0,1-3.72-7.66l.05-.14h2.66a6.72,6.72,0,0,0,3,6,12.56,12.56,0,0,0,7,2A10.84,10.84,0,0,0,235,38.6,5.63,5.63,0,0,0,237.53,33.86Z"/><path class="cls-1" d="M249.68,20.83a9.64,9.64,0,0,1,3.47-3.61,9.54,9.54,0,0,1,5-1.28,7.84,7.84,0,0,1,6.29,2.54c1.46,1.69,2.2,4.32,2.2,7.88v16h-2.88v-16q0-4.21-1.67-6a5.89,5.89,0,0,0-4.59-1.83,8,8,0,0,0-5,1.47,8.52,8.52,0,0,0-2.87,4v18.5h-2.87V5h2.87Z"/><path class="cls-1" d="M290.55,42.35c-.17-.91-.3-1.69-.39-2.35a14.76,14.76,0,0,1-.13-2,10.49,10.49,0,0,1-3.77,3.48,11,11,0,0,1-5.56,1.38,8.16,8.16,0,0,1-5.91-2,7.29,7.29,0,0,1-2.09-5.5,6.62,6.62,0,0,1,3-5.64,13.45,13.45,0,0,1,7.91-2.15H290V24.33A5.57,5.57,0,0,0,288.26,20a7.2,7.2,0,0,0-5-1.58,7.42,7.42,0,0,0-4.76,1.44,4.45,4.45,0,0,0-1.81,3.62h-2.66l-.05-.15a6.15,6.15,0,0,1,2.51-5.14,10.38,10.38,0,0,1,6.91-2.21,10.26,10.26,0,0,1,6.86,2.18,7.73,7.73,0,0,1,2.59,6.25V37.12a23.24,23.24,0,0,0,.15,2.67,17.6,17.6,0,0,0,.52,2.56Zm-9.54-2a10.25,10.25,0,0,0,5.73-1.57,7.81,7.81,0,0,0,3.29-4v-5h-6.4a9.54,9.54,0,0,0-5.78,1.67,4.87,4.87,0,0,0-2.28,4A4.59,4.59,0,0,0,277,39,5.63,5.63,0,0,0,281,40.31Z"/><path class="cls-1" d="M312.36,18.88l-2-.14a6.53,6.53,0,0,0-4.45,1.52,8.37,8.37,0,0,0-2.48,4.18V42.35h-2.88V16.42H303l.36,4.31V21a9.29,9.29,0,0,1,3-3.74,7.54,7.54,0,0,1,4.51-1.34,5.4,5.4,0,0,1,1,.08c.32.06.59.12.79.18Z"/><path class="cls-1" d="M326.67,42.85a10.36,10.36,0,0,1-8.17-3.56,13.32,13.32,0,0,1-3.14-9.14V28.83a13.55,13.55,0,0,1,3.18-9.25,10,10,0,0,1,7.87-3.64,9.06,9.06,0,0,1,7.3,3,12.17,12.17,0,0,1,2.58,8.16v2.23H318.24v.79a11.71,11.71,0,0,0,2.24,7.36,7.36,7.36,0,0,0,6.19,2.92,11.88,11.88,0,0,0,4.37-.78,9.66,9.66,0,0,0,3.3-2.09l1.23,2A10.58,10.58,0,0,1,332,41.91,13.48,13.48,0,0,1,326.67,42.85Zm-.26-24.47A7,7,0,0,0,321,20.75a10.25,10.25,0,0,0-2.49,6l.07.14h14.86v-.6a8.76,8.76,0,0,0-1.81-5.69A6.3,6.3,0,0,0,326.41,18.38Z"/><path class="cls-1" d="M350,7.2h-4.95V20.69h-1.18V7.2h-5.11v-1H350Z"/><path class="cls-1" d="M359.32,19h.06l5.4-12.77h1.46v14.5H365V8.51H365l-5.2,12.19h-.86L353.6,8.2h-.06V20.69h-1.19V6.19h1.59Z"/><path class="cls-2" d="M201.34,10.2l-8.61-8.61a3.07,3.07,0,0,0-4.34,0l-8.62,8.61a3.08,3.08,0,1,0,4.35,4.35l3.37-3.37V34.43L165.32,8A3.07,3.07,0,0,0,160,10.1V30.9a8.88,8.88,0,1,0,6.15,0V18l22.17,26.4a3.07,3.07,0,0,0,5.34-2.07V11.18L197,14.55a3.07,3.07,0,1,0,4.34-4.35ZM163,43a3.75,3.75,0,0,1-.21-7.49l.21,0,.21,0A3.75,3.75,0,0,1,163,43Z"/></svg>