<?xml version="1.0" encoding="utf-8"?>
<!-- Generator: Adobe Illustrator 24.0.1, SVG Export Plug-In . SVG Version: 6.00 Build 0)  -->
<svg version="1.1" id="圖層_1" xmlns="http://www.w3.org/2000/svg" xmlns:xlink="http://www.w3.org/1999/xlink" x="0px" y="0px"
	 viewBox="0 0 188 25" style="enable-background:new 0 0 188 25;" xml:space="preserve">
<style type="text/css">
	.st0{fill:#092058;}
	.st1{fill:#2F31E5;}
</style>
<title>W_logo</title>
<path class="st0" d="M11.1,16.5c0-0.6-0.2-1.2-0.7-1.6c-0.7-0.5-1.6-0.9-2.5-1.2c-1.7-0.4-3.2-1.2-4.6-2.2c-1-0.8-1.6-2.1-1.6-3.4
	c0-1.4,0.6-2.7,1.8-3.5c1.3-1,2.9-1.4,4.5-1.4c1.9,0,3.5,0.5,4.7,1.5c1.2,0.9,1.8,2.4,1.7,3.9l0,0.1H11c0.1-0.8-0.2-1.5-0.8-2
	C9.6,6.2,8.8,5.9,8,6c-0.7,0-1.4,0.2-2,0.6C5.5,7,5.2,7.6,5.3,8.2c0,0.6,0.3,1.1,0.8,1.5c0.8,0.5,1.7,0.9,2.7,1.2
	c1.6,0.4,3.1,1.1,4.4,2.1c1,0.9,1.6,2.1,1.5,3.5c0,1.4-0.6,2.7-1.8,3.5c-1.2,0.9-2.7,1.3-4.6,1.3c-1.7,0-3.4-0.4-4.9-1.4
	c-1.3-0.9-2-2.3-2-4.2l0.1-0.1h3.4c-0.1,0.9,0.3,1.7,0.9,2.3c0.7,0.5,1.6,0.8,2.5,0.7c0.8,0.1,1.5-0.2,2.1-0.6
	C10.8,17.7,11.1,17.1,11.1,16.5z"/>
<path class="st0" d="M22.6,21.3c-1.9,0-3.5-0.6-4.5-1.8c-1.1-1.3-1.7-2.9-1.6-4.6v-0.5c-0.1-1.7,0.5-3.4,1.6-4.8
	c1.1-1.3,2.7-1.9,4.4-1.9c1.7,0,3.1,0.5,4,1.6c1,1.2,1.5,2.8,1.4,4.3v1.8H20l0,0.1c0,0.8,0.3,1.6,0.8,2.2c0.6,0.6,1.4,0.9,2.2,0.8
	c0.7,0,1.4-0.1,2-0.2c0.6-0.2,1.2-0.4,1.7-0.7l0.9,2.2c-0.6,0.5-1.4,0.8-2.1,1.1C24.5,21.2,23.6,21.3,22.6,21.3z M22.3,10.5
	c-0.6,0-1.2,0.2-1.6,0.7c-0.4,0.6-0.7,1.2-0.7,2l0,0.1h4.3V13c0-0.6-0.1-1.3-0.5-1.8C23.5,10.7,22.9,10.5,22.3,10.5z"/>
<path class="st0" d="M33.5,21.1H30V2.3h3.5V21.1z"/>
<path class="st0" d="M42,21.3c-1.9,0-3.5-0.6-4.6-1.8c-1.1-1.3-1.7-2.9-1.6-4.6v-0.5c-0.1-1.7,0.5-3.4,1.6-4.8
	c1.1-1.3,2.7-1.9,4.4-1.9c1.7,0,3.1,0.5,4,1.6c1,1.2,1.5,2.8,1.4,4.3v1.8h-7.8l0,0.1c0,0.8,0.3,1.6,0.8,2.2c0.6,0.6,1.4,0.9,2.2,0.8
	c0.7,0,1.4-0.1,2-0.2c0.6-0.2,1.1-0.4,1.7-0.7l0.9,2.2c-0.6,0.5-1.4,0.8-2.1,1.1C44,21.2,43,21.3,42,21.3z M41.8,10.5
	c-0.6,0-1.2,0.2-1.6,0.7c-0.4,0.6-0.7,1.2-0.7,2v0.1h4.3V13c0-0.6-0.1-1.3-0.4-1.8C43,10.7,42.4,10.5,41.8,10.5z"/>
<path class="st0" d="M54.7,18.6c0.5,0,1.1-0.2,1.5-0.5c0.4-0.4,0.6-0.9,0.5-1.5h3.2v0.1c0.1,1.3-0.5,2.5-1.5,3.3
	c-1,0.9-2.4,1.4-3.8,1.3c-1.9,0-3.4-0.6-4.5-1.8c-1.1-1.3-1.6-3-1.6-4.7v-0.4c-0.1-1.7,0.5-3.4,1.6-4.7c1.1-1.2,2.5-1.9,4.4-1.9
	c1.4-0.1,2.8,0.4,3.8,1.4c1,0.9,1.5,2.3,1.4,3.6v0.1h-3.2c0-0.6-0.2-1.2-0.6-1.7c-0.4-0.5-0.9-0.7-1.5-0.7c-0.8-0.1-1.6,0.4-1.9,1.1
	c-0.4,0.9-0.6,1.8-0.6,2.8v0.4c0,1,0.2,1.9,0.6,2.8C53.1,18.3,53.9,18.7,54.7,18.6z"/>
<path class="st0" d="M66.2,4.9v3.2h2.2v2.5h-2.2v6.6c0,0.4,0.1,0.8,0.3,1.1c0.2,0.2,0.5,0.3,0.8,0.3c0.2,0,0.3,0,0.5,0
	c0.2,0,0.3-0.1,0.5-0.1l0.3,2.5c-0.3,0.1-0.7,0.2-1,0.3c-0.4,0.1-0.7,0.1-1.1,0.1c-1,0.1-2-0.3-2.8-1c-0.7-0.7-1-1.7-1-3.2v-6.6
	h-1.9V8.1h1.9V4.9H66.2z"/>
<path class="st0" d="M119.2,16.6c0-0.9-0.4-1.7-1.1-2.2c-1.1-0.8-2.3-1.3-3.6-1.6c-1.5-0.4-3-1-4.3-1.9c-1-0.7-1.5-1.9-1.5-3.1
	c0-1.3,0.6-2.5,1.6-3.3c1.2-0.9,2.7-1.3,4.2-1.3c1.6-0.1,3.1,0.4,4.3,1.5c1,0.9,1.6,2.3,1.6,3.7l0,0.1H119c0-1.1-0.4-2.1-1.3-2.9
	c-0.9-0.8-2.1-1.2-3.2-1.1c-1.2-0.1-2.3,0.3-3.2,1c-0.7,0.6-1.2,1.4-1.2,2.4c0,0.9,0.4,1.7,1,2.2c0.7,0.6,1.9,1.1,3.7,1.6
	c1.5,0.4,3,1.1,4.2,2c1,0.8,1.5,1.9,1.5,3.1c0,1.3-0.6,2.6-1.7,3.3c-1.3,0.9-2.8,1.3-4.3,1.2c-1.6,0-3.2-0.4-4.5-1.3
	c-1.3-0.9-2-2.3-1.9-3.8l0-0.1h1.3c-0.1,1.2,0.5,2.3,1.5,3c1,0.7,2.3,1,3.5,1c1.2,0.1,2.3-0.3,3.3-0.9
	C118.7,18.5,119.2,17.6,119.2,16.6z"/>
<path class="st0" d="M125.3,10.1c0.4-0.7,1-1.4,1.7-1.8c0.8-0.4,1.6-0.7,2.5-0.6c1.2-0.1,2.4,0.4,3.2,1.3c0.7,0.8,1.1,2.2,1.1,4v8
	h-1.4v-8c0-1.4-0.3-2.4-0.8-3c-0.6-0.6-1.4-1-2.3-0.9c-0.9,0-1.8,0.2-2.5,0.7c-0.7,0.5-1.2,1.2-1.4,2V21h-1.4V2.2h1.4L125.3,10.1z"
	/>
<path class="st0" d="M145.8,20.9c-0.1-0.5-0.2-0.8-0.2-1.2c0-0.3-0.1-0.7-0.1-1c-0.5,0.7-1.1,1.3-1.9,1.7c-0.9,0.5-1.8,0.7-2.8,0.7
	c-1.1,0.1-2.1-0.3-3-1c-0.7-0.7-1.1-1.7-1-2.8c0-1.1,0.6-2.2,1.5-2.8c1.2-0.8,2.6-1.1,4-1.1h3.2v-1.6c0-0.8-0.3-1.6-0.9-2.2
	c-0.7-0.6-1.6-0.9-2.5-0.8c-0.9,0-1.7,0.2-2.4,0.7c-0.6,0.4-0.9,1.1-0.9,1.8h-1.3l0-0.1c0-1,0.4-2,1.3-2.6c1-0.8,2.2-1.2,3.5-1.1
	c1.2-0.1,2.5,0.3,3.4,1.1c0.9,0.8,1.4,1.9,1.3,3.1v6.4c0,0.4,0,0.9,0.1,1.3c0.1,0.4,0.1,0.9,0.3,1.3L145.8,20.9z M141,19.9
	c1,0,2-0.2,2.9-0.8c0.8-0.5,1.3-1.2,1.7-2v-2.5h-3.2c-1,0-2.1,0.3-2.9,0.8c-0.7,0.4-1.1,1.2-1.1,2c0,0.7,0.2,1.3,0.7,1.8
	C139.5,19.7,140.2,19.9,141,19.9L141,19.9z"/>
<path class="st0" d="M156.7,9.1l-1-0.1c-0.8,0-1.6,0.2-2.2,0.8c-0.6,0.6-1,1.3-1.2,2.1v9h-1.4v-13h1.2l0.2,2.2v0.1
	c0.3-0.7,0.8-1.4,1.5-1.9c0.7-0.5,1.5-0.7,2.3-0.7c0.2,0,0.3,0,0.5,0c0.2,0,0.3,0.1,0.4,0.1L156.7,9.1z"/>
<path class="st0" d="M163.9,21.2c-1.6,0.1-3.1-0.6-4.1-1.8c-1.1-1.3-1.6-2.9-1.6-4.6v-0.7c-0.1-1.7,0.5-3.3,1.6-4.6
	c1-1.2,2.4-1.9,4-1.8c1.4-0.1,2.7,0.5,3.7,1.5c0.9,1.2,1.4,2.6,1.3,4.1v1.1h-9.1v0.4c-0.1,1.3,0.3,2.6,1.1,3.7
	c0.7,1,1.9,1.5,3.1,1.5c0.7,0,1.5-0.1,2.2-0.4c0.6-0.2,1.2-0.6,1.7-1l0.6,1c-0.5,0.5-1.1,0.9-1.8,1.2
	C165.7,21,164.8,21.2,163.9,21.2z M163.8,8.9c-1,0-2,0.4-2.7,1.2c-0.7,0.8-1.2,1.9-1.2,3l0,0.1h7.5v-0.3c0-1-0.3-2-0.9-2.9
	C165.7,9.2,164.8,8.8,163.8,8.9z"/>
<path class="st0" d="M175.6,3.3h-2.5V10h-0.6V3.3H170V2.8h5.6V3.3z"/>
<path class="st0" d="M180.3,9.2L180.3,9.2l2.7-6.4h0.7v7.3h-0.6V3.9l0,0l-2.6,6.1h-0.4l-2.7-6.3h0V10h-0.6V2.8h0.8L180.3,9.2z"/>
<path class="st1" d="M101,4.8l-4.3-4.3c-0.6-0.6-1.6-0.6-2.2,0l-4.3,4.3C89.5,5.3,89.5,6.3,90,7c0.6,0.6,1.5,0.7,2.2,0.1
	c0,0,0.1-0.1,0.1-0.1L94,5.3v11.7L82.9,3.7C82.3,3,81.4,3,80.7,3.6c-0.3,0.3-0.5,0.7-0.5,1.1v10.4c-2.3,0.9-3.5,3.4-2.6,5.7
	s3.4,3.5,5.7,2.6c2.3-0.9,3.5-3.4,2.6-5.7c-0.5-1.2-1.4-2.2-2.6-2.6V8.7l11.1,13.3c0.6,0.6,1.5,0.7,2.2,0.1c0.3-0.3,0.5-0.7,0.5-1.1
	V5.3L98.8,7c0.6,0.6,1.6,0.6,2.2,0C101.6,6.4,101.6,5.4,101,4.8C101,4.8,101,4.8,101,4.8z M81.7,21.2c-1,0-1.9-0.9-1.9-1.9
	c0-1,0.8-1.8,1.7-1.8h0.1h0.1c1,0.1,1.8,1,1.7,2C83.5,20.5,82.7,21.2,81.7,21.2z"/>
</svg>
